<svg width="60" height="60" viewBox="0 0 60 60" fill="none" xmlns="http://www.w3.org/2000/svg">
<g clip-path="url(#clip0_52_3218)">
<path d="M30 60C46.5685 60 60 46.5685 60 30C60 13.4315 46.5685 0 30 0C13.4315 0 0 13.4315 0 30C0 46.5685 13.4315 60 30 60Z" fill="#F9E653"/>
<path d="M29.6428 47.8571C40.1494 47.8571 48.6666 39.8835 48.6666 30.0476C48.6666 20.2116 40.1494 12.238 29.6428 12.238C19.1363 12.238 10.619 20.2116 10.619 30.0476C10.619 39.8835 19.1363 47.8571 29.6428 47.8571Z" fill="#331F20"/>
<path d="M46.9464 51.5H13.5536C11.0387 51.5 9 49.4613 9 46.9464V13.5536C9 11.0387 11.0387 9 13.5536 9H46.9464C49.4613 9 51.5 11.0387 51.5 13.5536V46.9464C51.5 49.4613 49.4613 51.5 46.9464 51.5ZM37.8647 18.1884C35.5326 17.1223 32.9944 16.5893 30.25 16.5893C27.5056 16.5893 24.9674 17.1223 22.6353 18.1884C20.3032 19.2545 18.4595 20.7042 17.1043 22.5374C15.7491 24.3707 15.0714 26.3703 15.0714 28.5363C15.0714 30.6347 15.7123 32.5779 16.9942 34.3661C18.276 36.1541 20.0067 37.5897 22.1864 38.6727C21.2264 41.8992 20.7125 43.7325 20.6448 44.1725V44.2401C20.6448 44.2852 20.6561 44.336 20.6787 44.3923C20.7013 44.4488 20.7351 44.494 20.7804 44.5278C20.8933 44.5842 21.0118 44.5899 21.1361 44.5447C21.3959 44.5108 23.5359 43.1007 27.5565 40.3142C28.4825 40.4382 29.3804 40.5003 30.25 40.5003C33.0057 40.5003 35.5467 39.9672 37.8732 38.9011C40.1996 37.835 42.0405 36.3826 43.3957 34.5437C44.7509 32.7048 45.4286 30.7023 45.4286 28.5363C45.4286 26.3703 44.7509 24.3707 43.3957 22.5374C42.0405 20.7042 40.1968 19.2545 37.8647 18.1884Z" fill="#F9E653"/>
</g>
<defs>
<clipPath id="clip0_52_3218">
<rect width="60" height="60" fill="white"/>
</clipPath>
</defs>
</svg>
